<?xml version="1.0" encoding="utf-8"?>
<!-- Generator: Adobe Illustrator 25.0.1, SVG Export Plug-In . SVG Version: 6.00 Build 0)  -->
<svg version="1.1" id="Layer_1" xmlns="http://www.w3.org/2000/svg" xmlns:xlink="http://www.w3.org/1999/xlink" x="0px" y="0px"
	 viewBox="0 0 500 286" style="enable-background:new 0 0 500 286;" xml:space="preserve">
<style type="text/css">
	.st0{opacity:0.4;}
	.st1{fill:none;stroke:#208040;stroke-width:0.25;stroke-miterlimit:10;}
</style>
<g class="st0">
	<path class="st1" d="M401.3,272.3c2.9-1.8,6-1.1,9.1-1c1.1,0,1.7,0.8,1.8,1.9c0,0.2,0,0.5,0,0.7c0,23.5,0,47,0,70.5
		c0,2.5-0.9,3.3-3.3,2.7c-0.5-0.1-0.9-0.3-1.1,0.1c-1.6,2-3.7,1.1-5.6,1.1c-0.3,0-0.7-0.4-1-0.2c-1.1,0.9-2.4,0.5-3.6,0.5
		c-21.3,0-42.6,0-63.9,0c-1.6,0-3,0.7-4.5,0.9c-1.2,0.2-2.3,0.5-3.5,0.5c-47.9,0-95.7,0-143.6,0c-1.1,0-1.9-0.4-2.9-1.2
		c-1.8-1.6-1.3-3.5-1.5-5.4c0-0.4,0.2-0.9-0.1-1.3"/>
	<path class="st1" d="M499.6,335.8c0.2,0.5,0.1,1-0.5,1.1c-0.5,0.1-1.1,0.1-1.7,0.1c-18,0-35.9,0-53.9,0c-0.8,0-1.7-0.1-2.2,0.7
		c-0.2,0.3-0.5,0.5-0.5,1c0.1,2,0,3.9,0,5.9c0,1.3,0.8,2,2.1,1.8c0.6-0.1,1.1-0.1,1.7-0.1c17.7,0,35.3,0,53,0c0.7,0,1.3-0.1,2,0.3
		c0,2.9,0,2.9-2.9,2.9c-18.2,0-36.4,0-54.5,0c-3.1,0-6.1-0.2-9.2-0.3c-1.1,0-2.2,0-3.2-0.3c-4.1-1.3-8.4-0.3-12.6-0.8
		c-2.1-0.3-2.4-1.2-2.4-2.8c0.1-3.4,0-6.8,0-10.2c0-20.2,0-40.4,0-60.5c0-1.3,0.1-2.5,1.5-3.1c0.4-0.2,0.8-0.1,1.1-0.1
		c2.8,0,5.7,0,8.5,0c1.8,0,2.9,1.1,2.9,2.9c0,2.6,0,5.1,0,7.7c0,15.2,0.1,30.4,0.1,45.6c0,1,0.3,1.8,0.9,2.5"/>
	<path class="st1" d="M432.1,261.3c0-28,0-56.1,0-84.1c0-1.6-0.3-2.1-2-2c-1.2,0.1-2.4,0-3.6,0c-1.7,0-2.1,0.4-2.1,2.1
		c0,21.2,0,42.3,0,63.5c0,1-0.1,1.8-0.8,2.5"/>
	<path class="st1" d="M337.2,298.5c-0.2-0.6-0.5-1.1-1-1.5c-3.2-3.5-2.3-11.1,4-12.8c0.9-0.2,1.8-0.3,2.7-0.3c17.4,0,34.9,0,52.3,0
		c0.9,0,1.7,0.2,2.4,0.6c0.6,0.4,1.3,0.9,1,1.8c-0.3,0.9-1.4,1.2-2.1,1.1c-1.3-0.3-2.6-0.2-3.9-0.2c-16.3,0-32.6,0-49,0
		c-1.8,0-3.5,0.2-4.6,1.8c-1.3,1.8-1.3,3.7-0.5,5.6c0.7,1.7,2.3,2.4,4.1,2.4c17.5,0,35.1,0,52.6,0c1.1,0,2.2-0.4,3.1,0.7"/>
	<path class="st1" d="M420.5,193.8c1.2-0.9,1.2-2.2,1.3-3.5c0-8.3,0-16.6,0-24.8c0-1.3-0.3-1.7-1.7-1.7c-14.5,0-28.9,0-43.4,0
		c-1.4,0-1.5,0.1-1.5,1.5c0,14.1,0,28.3,0,42.4c0,2.2,0,4.4,0,6.6"/>
	<path class="st1" d="M303.3,198.7c-1.1-2.9-3.4-3-6-3c-8.7,0.1-17.4,0.1-26.1,0c-1.5,0-2.1,0.7-2.1,2.1c0.1,8.4-0.1,16.7,0.1,25.1
		c0.1,7.3,0,14.6,0.1,21.9c0,0.5,0.2,1.1-0.3,1.5c-0.7,0.8-0.6,1.7-0.5,2.6c0.4,5.1,0.2,10.2,0.3,15.3c0,0.8,0.1,1.6,0.1,2.4
		c0.2,1.4,0.7,2.4,2.2,2.7c0.5,0.1,1,0.4,1.4,0.8"/>
	<path class="st1" d="M159.2,348.3c0.1-0.3,0.1-0.6,0.3-0.8c1.2-1.4,1.3-3.1,1.3-4.9c0-21.3,0-42.5,0-63.8c0-2.4-1.9-4.3-4.2-4.2
		c-8.6,0.1-17.2,0.1-25.8,0c-6.3-0.1-12.5-0.5-18.8-0.4c-2.5,0-4.6,0.2-5.9,2.7"/>
	<path class="st1" d="M201.9,209.1c-0.3-0.6-0.1-1.3-0.1-2c0-0.9,0.1-1.8-0.5-2.7c-0.2-0.3-0.2-0.9-0.2-1.4c0-3.7,0.1-7.4-0.1-11
		c-0.1-2.2,0.1-4.4-0.2-6.7c-0.2-1.4,0.1-3.1,0.1-4.7c0.1-1.9,0-3.8,0-5.7c0-2.4-1.2-3.8-3.6-3.7c-4,0-7.9,0.2-11.9,0.3
		c-1.2,0-2.2,0.7-2.9,1.6c-2.2,2.6-5.1,3.2-8.3,3.1c-2.9-0.1-5.8,0-8.6,0c-1.7,0-1.8-0.2-1.8-2c0-4.4,0.5-8.8,0.3-13.3
		c-0.1-1.8-0.9-2.9-2.7-2.9c-4.8-0.1-9.7-0.1-14.5,0.3c-3,0.3-6,0.7-8.9,1.5c-2.4,0.6-4.9,1.3-7.1,2.4c-1.1,0.6-2.1,0.6-3.4,0.2
		c-5.1-1.8-10.4-2.7-15.7-3.4c-5.6-0.8-11.2-0.7-16.7-0.9c-0.6,0-1.1,0-1.7,0.1c-1,0.2-1.4,0.8-1.4,1.8c0,5.9,0,11.7,0,17.6
		c0,3,0.3,6,0.4,8.9c0,1.3-0.5,2.5,0.1,3.8c0.3,0.7-0.5,1.4-1.2,1.8c-0.5-0.3-1.2-0.3-1.8-0.3c-16,0-32.1,0-48.1,0
		c-2.3,0-3.1,1.5-3.3,3.3c-0.2,1.7,0.1,3.3,1.6,4.5c0.4,0.3,0.5,0.9,0.4,1.4"/>
	<path class="st1" d="M466.1,195.7c-6.5-2.8-13.3-3.7-20.2-4.6c-3.3-0.4-6.6-0.1-9.9-0.3c-1-0.1-1.3,0.4-1.4,1.3c0,0.3,0,0.6,0,0.8
		c0,10.8,0,21.7,0,32.5c0,1.6,0.3,2.1,2,2.4c2.3,0.3,4.6,0.5,6.8,0.9c4,0.6,8.1,1.2,12.1,1.8c3.7,0.5,7.3,0.9,11,0.8"/>
	<path class="st1" d="M261.9,288.6c0.5,0.7,1.6,1.1,1.4,2.2c-0.1,1-1.5,2.2-2.5,1.9c-0.5-0.1-0.9-0.1-1.4-0.1c-13.6,0-27.3,0-40.9,0
		c-2.1,0-3.1,0.8-3.3,2.8c-0.1,0.8-0.2,1.7,0,2.5c0.4,2.1,1.5,3,3.5,3c13.7-0.1,27.4,0,41.2,0c1.6,0,2-0.3,2.2-1.7
		c0.4-2.1,0.3-4.2-0.7-6.1"/>
	<path class="st1" d="M266,327.8c-1.6-0.1-3.3-0.3-4.7-0.1c-1.8,0.2-3.6,0.3-5.5,0.4c-1.7,0-3.4,0-5.2,0c-0.3,0-0.7,0-1,0
		c-14.4,0-28.7,0-43.1,0c-3.7,0-5,1.9-5,5c0,1-0.2,2,0.2,3.1c0.8,1.9,2,2.9,4.1,2.9c10.2,0,20.4,0,30.6,0c1.3,0,2.5,0.1,3.8,0.1"/>
	<path class="st1" d="M28.1,266.3c-0.9,1-1.9,1.3-3.2,1.3c-2.5-0.1-5-0.1-7.5-0.1c-3.2,0.1-6.3,0.4-9.5,0.4c-1.3,0-2,0.9-1.9,2.3
		c0.2,2.4,0.1,4.7,0.1,7.1c0,1.3,0.3,1.5,1.5,1.5c5.5,0,11,0,16.5,0c13.4,0,26.9-0.2,40.3,0.1c5.3,0.1,10.7,0.3,16,0.1
		c3.6-0.1,7.2,0,10.7-0.2c1.1,0,1.9-0.7,1.9-1.8c0.1-2.5,0.2-5-0.1-7.5c-0.1-1.1-0.8-1.6-1.9-1.7c-3.1-0.2-6.2-0.2-9.3,0
		c-2,0.1-4,0.2-6,0c-3.5-0.4-7-0.2-10.5-0.1c-1.5,0-2.9-0.2-3.9-1.4"/>
	<path class="st1" d="M387.3,261.2c-0.1,0-0.2,0.1-0.3,0.1c-0.8,2.5-2.8,2.5-5,2.5c-19.3,0.3-38.6,0.1-57.9,0c-2,0-4.1,0.2-6.1,0.1
		c-2-0.1-4,0-6,0c-2.2,0-3.1,0.9-3.1,3.1c0,0.8,0.1,1.6-0.4,2.4c-0.1,0.1-0.2,0.3,0,0.6c0.7,1.1,0.4,2.3,0.4,3.5
		c0,1.9,0.8,2.8,2.7,3.1c0.4,0.1,0.8,0,1.3,0c20.6,0,41.3,0,61.9,0c1.3,0,2.5,0,3.6-1.1c1,1.2,2.4,0.9,3.7,0.9c4.8,0,9.7,0,14.5,0
		c1.3,0,2.4-0.3,3.2-1.3c0.3-0.3,0.6-0.5,1-0.7"/>
	<path class="st1" d="M467.4,209c1.3-1.2,0.9-2.9,1.1-4.3c0.2-1.7,0.1-3.5,0.1-5.3c0-2.3,1.3-4.1,3.5-4.7c1.9-0.6,3.8-0.9,5.7-1.1
		c2.7-0.3,5.5-0.5,8.2-0.4c0.9,0,1.8,0.1,2.7,0.1c1,0.1,1.7,0.9,1.7,2.2c0,3.1,0,6.2,0,9.3c0,8.2,0,16.4,0,24.6
		c0,6.3-0.2,12.6-1,18.8c-0.2,1.4,0.3,2,1.5,2.1c1.2,0.1,1.4-0.2,1.5-1.8c0.4-7.2,0-14.4,0.2-21.6c0.3-11.1,0-22.2,0.1-33.3
		c0-0.6,0-1.2-0.1-1.8c-0.2-1.4-1.1-2.1-2.5-2.1c-3.3,0-6.5-0.2-9.8,0.3c-4.1,0.6-8.2,1.1-11.7,3.6c-1.4,1-2.4,2.1-2.3,4.1
		c0.1,3,0.1,6,0,9.1c0,0.9,0.2,1.7,0.9,2.4"/>
	<path class="st1" d="M261.6,300.6c0.3,0.2,0.7,0.5,1,0.7c1.1,0.8,1,2-0.1,2.6c-1.5,0.9-3.1,1.2-4.9,0.8c-0.4-0.1-0.7,0-1.1,0
		c-12.5,0-24.9,0-37.4,0c-2.1,0-4.3-0.2-6.4,0.2c-2,0.4-4.1,0.1-6.1,0.1c-2.1,0-4.2,0.1-6.3,0.1c-1.5,0-1.9,0.3-1.9,1.7
		c-0.1,1.6-0.1,3.2,0.1,4.7c0.1,1.2,0.8,1.4,1.6,1.7c0.4,0.1,0.8,0,1.3,0c14.8,0,29.6,0,44.4,0c1.3,0,2.3,0.1,3.1,1.3"/>
	<path class="st1" d="M129.4,168.5c0,8,0,15.9,0,23.9c0,1.5,0,3,1.4,4.1c0.5,0.4,1,0.5,1.6,0.5c8.3,0,16.6,0,25,0
		c1,0,1.2-0.4,1.3-1.3c0.5-4.8,0.7-9.7,0.9-14.5c0.3-6,0.7-12.1,0.7-18.1c0-1.6-0.5-2.1-2.1-2.1c-4.9-0.1-9.9,0.1-14.8,0.7
		c-3.1,0.4-6.1,0.9-9.1,1.7c-1.8,0.5-3.6,1.4-4,3.7c-0.1,0.4-0.5,0.7-0.8,1.1"/>
	<path class="st1" d="M366,208.7c1.4,0.5,2.8,0.7,4.3,0.6c1.9-0.1,2.7-1.1,2.5-2.6c-0.1-1,0.1-2,0.1-3.1c0-16-0.1-32.1-0.1-48.1
		c0-0.2,0-0.5,0-0.7c-0.3-2.6-0.2-2.4-2.6-2.4c-0.5,0-0.9,0-1.4,0c-2.3,0-3,0.9-3,3.2c0,5.5,0.2,11.1-0.1,16.6c0,0.3,0,0.7,0,1
		c0,11.3,0,22.5,0,33.8c0,2.2-0.5,4.5,0,6.7c0.4,2-0.2,4,0,6c0.1,1.1-0.8,1.4-1.7,1.4c-2.9,0-5.9,0-8.8,0c-1.3,0-2-0.9-2.7-1.8"/>
	<path class="st1" d="M91.8,188.6c-0.9-0.2-1.8-0.3-2.7-0.3c-17,0-34,0-51.1,0c-4.1,0-6.3,2.4-6.6,5.3c-0.3,2.2,0.4,4.3,2.6,5.4
		c0.7,0.4,1.2,0.9,1.5,1.5"/>
	<path class="st1" d="M129.2,168.2c-0.5-0.7-1-1.3-1.4-2c-1.2-2.5-3.7-2.5-5.9-2.9c-2.4-0.4-4.8-0.9-7.2-1.2
		c-5.6-0.7-11.1-1.3-16.7-1.2c-1.2,0-1.5,0.4-1.5,1.8c0,10.2,0,20.4,0,30.6c0,5.8,0,11.5,0,17.3c0,1.5,0.2,1.6,1.7,1.7
		c2.9,0.1,5.9,0.2,8.8,0.1c4.4-0.1,8.7,0,13.1-0.1c1.5-0.1,2,0.4,1.9,1.9c-0.1,1.7,0.1,3.4-0.2,5.2c-0.1,1,0.2,2.2,0.2,3.3
		c0,1.6-0.7,2.4-2.4,2.4c-3.3,0-6.5-0.1-9.8,0c-1.9,0-3-1.1-3-3c0.1-3.2,0-6.3,0-9.5"/>
	<path class="st1" d="M81,347.5c-1.1,1.5-2.7,1.1-4.2,1.2c-2.7,0.2-5.4-0.1-8.1,0.2c-5.9,0.7-11.8,0.1-17.7,0.4
		c-5.4,0.2-10.9,0.2-16.3,0.1c-11.3-0.2-22.6,0-33.9-0.1"/>
	<path class="st1" d="M257.6,315.7c0.3,1.3,1.4,2.3,1.7,3.6c0.6,2.1-0.1,3.7-1.3,5.3c-0.4,0.5-1,0.4-1.5,0.4c-3.6,0-7.3,0-10.9,0
		c-9.8,0-19.6,0-29.4,0c-0.1,0-0.3,0-0.4,0c-2.3-0.8-4.6-0.7-6.8-0.2c-2.1,0.4-4.3-0.1-6.3,0.6c-2.7,1-4.2,3.3-4.7,6.1
		c-0.3,1.4-0.2,2.8-0.1,4.2c0.3,4,3.2,6.3,6.9,6.4c10.7,0.1,21.4,0,32.1,0c4.7-1.2,9.5-0.6,14.2-0.6c4.1,0,8.2-0.3,12.3,0.1
		c0.9,0.1,1.7,0.3,2.5,0.6"/>
	<path class="st1" d="M97.1,219.9c-0.2,0.9,0.2,1.8,0,2.8c-0.4,2.2-1.6,3.3-3.8,3.5c-1.2,0.1-2.3,0.1-3.5,0.1c-17.3,0-34.5,0-51.8,0
		c-0.8,0-1.6-0.1-2.2-0.7c-0.7,0.5-1.5,0.7-2.4,0.7c-6,0-12,0-18,0c-1.6,0-1.7-0.1-1.7-1.7c0-1.1,0-2.1,0-3.2c0-2.1,1.3-3.4,3.3-3.6
		c2.2-0.3,4.5-0.1,6.7-0.1c0.8,0,1.5,0.1,2.2-0.3c0.6-0.3,1,0,1.5,0.1c1.1,0.4,2.2,0.7,3.5,0.2c0.5-0.2,1.3,0.2,1.9,0.2
		c1.5,0.1,3,0.3,4.5,0.2c2.8-0.1,5.7,0.1,8.5-0.1c3.1-0.2,6.2,0.2,9.4,0.1c3.1-0.1,6.2,0,9.3,0c3.1,0,6.2,0,9.3,0c3.1,0,6.2,0,9.3,0
		c0.9,0,1.9-0.2,2.8-0.1c2.7,0.3,5.5,0.2,8.2,0.3c1,0,2,0.6,2.7,1.5"/>
	<path class="st1" d="M264.1,213.4c-0.6-1.4-1.6-2-3.2-2c-16.7,0.1-33.4,0-50.1,0c-1,0-2-0.3-3.1-0.1c-0.7,0.1-1.5-0.3-1.7-1.2
		c-0.4-1.9-0.6-3.8,0.3-5.7c0.5-1.1,1.2-1.5,2.4-1.2c0.8,0.2,1.5-0.2,2.2-0.2c17.1,0,34.1,0,51.2,0c1,0,1.7-0.5,2.3-1
		c0.7-0.5-0.3-2-1.4-2.2c-0.3-0.1-0.6,0-0.8,0c-4.7,0-9.3-0.1-14,0c-3,0.1-6,0-8.9,0c-10.5,0-20.9,0-31.4,0.1c-2.1,0-3.8,0.9-4.6,3
		c-0.3,0.8-0.5,1.8-1.5,2.2"/>
	<path class="st1" d="M202.3,209.5c0.8,0.6,0.8,1.5,1.2,2.2c1,1.8,2.5,2.6,4.5,2.6c18,0,36.1,0,54.1,0c0.5,0,0.9,0,1.2-0.3
		c0.8-0.8,1.8-0.5,2.7-0.4c0.9,0.1,1,0.9,1,1.6c0,1.9,0,3.8,0,5.7c0.1,3.7,0.3,7.4,0.2,11c-0.1,4.3,0.2,8.6,0.2,13
		c0,0.7,0.1,1.3,0.7,1.8"/>
	<path class="st1" d="M214.3,182.1c0.1,0.6-0.1,1.1-0.7,1.2c-0.6,0.2-1.1,0.7-1.8,0.3c-0.5-0.3-1-0.5-1.5-0.6
		c-2.1-0.4-4.2,2.1-4.6,3.7c-0.5,2.3-0.6,4.6,0,6.8c0.5,2,2.1,4.1,5.8,4.1c11.1-0.1,22.2,0,33.3,0c3.3,0,6.5-0.1,9.8-0.1
		c0.8,0,1.4-0.3,2-0.8c0,0,0-0.1,0-0.1c-1.2-1.5-2.5-2.1-4.6-2c-11.8,0.2-23.6,0.2-35.4,0.2c-1.6,0-3.2-0.1-4.7-0.1
		c-2.1-0.1-2.9-1.8-3-3.9c-0.2-2.5,0.6-4.6,2.8-6.1"/>
	<path class="st1" d="M256.9,222.7c-0.6,1.1-0.6,2.8,0.1,3.4c0.8,0.8,2.8,0.8,3.9,0c1.5-1.1,2.9-3.7,1.7-6.3c-0.4-0.9-0.9-1.5-2-1.5
		c-0.6,0-1.2-0.1-1.8-0.1c-9.7,0-19.3,0-29,0c-1,0-2.1,0-3.1,0.4c-1.5,0.8-2.4,2.1-2.7,3.7c-0.3,1.7-0.6,3.3-0.8,5
		c-0.1,0.9-0.5,1.6-1.4,2"/>
	<path class="st1" d="M352.2,168.7c-0.3,0-0.6-0.1-0.8-0.3c-1.1-0.7-1.9-0.6-2.8,0.3c-0.9,1.1-1.6,2.2-1.6,3.8
		c0.1,14.2,0,28.5,0,42.7c0,1.3-0.2,2.6-1,3.8c-0.8,1.3-2,2-3.5,1.7c-2.5-0.5-2.5-0.5-2.7-3.2c-0.1-1.3,0.1-2.7-0.8-3.9"/>
	<path class="st1" d="M496.7,253.6c0.6,2.3,0.2,4.6,0.2,6.8c0,0.7-0.5,1.2-1.4,1.1c-0.8,0-1.7,0-2.5,0c-15.2,0-30.3,0-45.5,0
		c-1,0-2,0-2.9,0.6"/>
	<path class="st1" d="M123.5,274.7c0,0.6-0.1,1.2-0.1,1.8c0,3.5-0.1,7.1,0,10.6c0.1,2-1,2.8-2.8,2.8c-3.3,0-6.7,0-10,0
		c-0.9,0-1.9,0.3-2.8-0.2c-0.6-0.3-1.3-0.8-1.3-1.3c-0.1-1.4-0.8-2.5-0.8-3.9c0-2.1-0.1-4.3-0.1-6.4c0-0.2,0.1-0.4,0-0.5
		c-1.3-1.5-0.6-3.3-0.7-5c-0.2-3.4,0.3-6.8-0.2-10.2c-0.1-0.6,0.3-1.3,0.7-1.8c0.6-0.7,0.5-1.4,0.5-2.1c0-4.1,0-8.2,0-12.3
		c0-3.9-0.1-7.8,0.1-11.7c0.1-1.8-1-3.2-1.3-4.9c-0.1-0.6-0.9-0.9-1.8-0.9c-5.8,0-11.6,0.1-17.4,0.3c-1.3,0-2.1,0.8-1.9,2.1
		c0.2,2,0.1,4.1,0.1,6.1c0,0.9,0,1.8-0.5,2.7c-0.4,0.6-0.4,1.6,0,2.2c0.5,0.9,0.5,1.7,0.5,2.7c0,5.3,0,10.7,0,16
		c0,0.8,0,1.5,0.7,1.9c0.8,0.5,1.2-0.3,1.8-0.6c0.1,0,0.1-0.1,0.1,0.1c6,0,12.1,0,18.1,0"/>
	<path class="st1" d="M61.7,308.7c1.5,2.9,1.3,5.8,0,8.8c-0.2,0.4-0.3,0.6-0.7,0.6c-9.1,0-18.2,0-27.3,0c-6.5,0-12.9,0-19.4,0
		c-0.7,0-1.4-0.1-2,0.4"/>
	<path class="st1" d="M387.6,260.7c0-5,0-10,0-14.9c0-0.5,0.1-1-0.1-1.4c-0.9-1.3-0.7-2.8-0.7-4.2c0-7.8,0-15.6,0-23.4
		c0-0.9-0.1-1.9-0.1-2.8c0-1-0.1-2,0.5-2.9c0.4-0.5,0.3-1.2,0.3-1.8c0-4.2,0-8.4,0-12.6c0-1.7,0.7-3.1,1.2-4.6
		c0.4-1.1,1.5-1.6,2.7-1.6c3.5,0,7.1,0,10.6,0c2.5,0,3.8,1.6,3.5,4c0,0.3,0,0.7,0,1c0,18.2,0,36.5,0,54.7c0,3.3,0,6.6,0,9.9
		c0,2.1-0.9,3.1-3.1,2.9c-3.3-0.3-6.7-0.1-10-0.1c-1.8,0-3.4-0.1-4.5-1.9"/>
	<path class="st1" d="M408.8,194.2c-1.4,1.4-1.4,3.1-1.4,4.9c0,17,0,33.9,0,50.9c0,0.6,0.1,1.2,0.1,1.8"/>
	<path class="st1" d="M283.7,183c0.4-3.9,3.6-5,6.6-5.9c3.4-1,7-1.1,10.6-0.5c0.6,0.1,1.2,0.3,1.7,0.8c0.6,0.7,1.5,0.8,2.4,0.7
		c1.1-0.2,1.1-1.1,1.1-1.9c0-1.5-0.1-3-0.1-4.5c0-5.2-0.1-10.4,0-15.6c0-1.7-0.2-3.4,0-5c0.2-1.3-0.5-1.9-1.6-2.2
		c-2-0.7-4.1-1.2-6.3-1.4c-3.5-0.3-7-0.3-10.5,0.8c-2.5,0.8-4.2,2.2-5.4,4.6c-0.7,1.3-0.8,2.6-0.8,3.9c0,6.9,0,13.9,0,20.8
		c0,1.8-0.2,3.5-0.4,5.3"/>
	<path class="st1" d="M137.5,261.8c0.6,0.7,1.4,0.9,2.4,0.8c16.6,0,33.2,0,49.8,0c0.7,0,1.4,0,2.1,0.4"/>
	<path class="st1" d="M439.9,260.2c-1.1,1.7-0.5,3.5,1.5,3.9c0.9,0.2,1.8,0.4,2.6-0.1c0.2-0.1,0.3-0.3,0.6-0.2
		c1.7,0.8,3.4,0.4,5.2,0.4c13.6,0,27.2,0,40.7,0c2.6,0,5.1-0.2,7.7,0"/>
	<path class="st1" d="M378.7,275.5c0.3-2,0.1-4,0.1-6c0-0.6,0.1-1.1,0.1-1.7c0.1-1.2,0.8-1.7,1.8-1.7c5.5,0,11,0,16.5,0
		c2.3,0,3.1,1,3.2,3.3c0,1,0.5,1.9,0.5,2.8c-0.1,1.5,0.5,2.9,0.5,4.3c0,13.7,0,27.3,0,41c0,0.7,0,1.5-0.5,2.1
		c-0.3,0.4-0.2,0.9-0.2,1.3c-0.1,2,0.2,4.1-0.1,6.1"/>
	<path class="st1" d="M494,250.3c0.5,0.4,1.2,0.1,1.8,0.3c0.7,0.2,1.6,0.3,1.8,1.1c0.2,0.9-0.6,1.2-0.9,1.6c-0.7,0-1.2-0.1-1.7-0.1
		c-16.4,0-32.7,0-49.1,0c-1.7,0-3.4-0.1-5.2,0c-1.3,0.1-1.7,0.4-1.7,1.7c0,0.9,0,1.9,0.1,2.8c0.4,2.2,1.7,3.5,4,3.6
		c1.7,0.1,1.2,1.2,1.3,2.1"/>
	<path class="st1" d="M62.4,334.1c0-1.2,1.2-1.8,1.3-3.1c0.3-2.6,0.4-5.2-0.1-7.8c-0.4-1.8-2.2-2.8-4.1-2.8c-5.3,0-10.7-0.1-16,0
		c-8.5,0.2-17,0.1-25.5,0.1c-1.3,0-2.6-0.2-3.9-0.3c-0.9,0-1.4-0.2-1.6-1.3c-0.2-1.1-0.9-1.3-1.9-0.8c-1.8,0.7-5.6-0.1-6.8-1.5
		c-1.3-1.6-1.3-3.6-0.7-5.4c0.7-1.9,2.2-2.9,4.3-2.9c1,0,2,0,3.1,0.2c0.8,0.2,1.7-0.4,2.6-0.4c13.9,0.3,27.8,0.1,41.7,0.1
		c1.9,0,3.7-0.1,5.6-0.1c0.9,0,1.7,0.3,2.5-0.2c0.6-0.4,1.1-0.7,1-1.5c-0.2-0.9-0.7-1.5-1.5-1.5c-1.9,0-3.8-0.1-5.7,0.1
		c-0.4,0-0.7,0-1.1,0c-16.6,0-33.1,0-49.7,0"/>
	<path class="st1" d="M456.9,271.9c0,2.2,0.2,4.5,0,6.7c-0.2,2.1-0.1,4.2-0.1,6.3c0,2.3,0.1,4.6,0.1,7c0.1,3.2,0,6.3,0,9.5
		c0,0.7,0.1,1.4,0.4,1.9c0.6,1,0.6,1.8,0,2.8c-0.4,0.6-0.5,1.2-0.4,1.9c0,2.8,0,5.6,0,8.4c0,0.7,0.1,1.4,0.4,1.9
		c0.6,1,0.6,1.9,0,2.8c-0.2,0.3-0.4,0.7-0.4,1.1c-0.1,1.4-0.9,1.7-2.1,1.7c-1.4-0.1-2.9,0-4.3,0c-2,0-2.7-0.7-2.6-2.6
		c0-1.1,0.1-2.1-0.8-2.9"/>
	<path class="st1" d="M58.1,293.1c-0.6-0.5-1.4-0.4-2.1-0.4c-16,0-31.9,0-47.9,0c-0.5,0-1,0.2-1.4-0.1"/>
	<path class="st1" d="M365.6,154.7c-3.2-0.3-6.3-0.1-9.5-0.1c-3.5,0-3.4-0.4-3.4,3.3c0,2.9,0.2,5.8,0,8.6c-0.3,4.2,0.2,8.5,0.1,12.7
		c-0.1,4.3,0,8.6,0,12.8c0,4.2,0,8.5,0,12.7s0,8.5,0,12.7c0,1.4-0.4,2.2-1.7,2.5c-1,0.2-2.1,0.1-2.8-0.8c-0.4-0.5-0.7-0.9-1.1-1.4"
		/>
	<path class="st1" d="M328.2,245.9c0.1,0.7-0.5,1.1-0.7,1.7c-0.6,1.3-0.4,2.6-0.4,3.9c0,3.9,0.2,4.2,4.2,4.6
		c6.9,0.7,13.9,1.4,20.8,2.1c3.4,0.3,6.8,0.7,10.2,1.1c1.2,0.1,2.4,0.4,3.6,0.4c1.7,0,3.4-0.4,4.9-1.2c1.8-1,3.8-1.8,5.4-3.1
		c1.5-1.2,2-2.8,2.1-4.6c0.2-4.7,0.5-4.4,4.5-5.4c1.3-0.3,2.3-0.7,3.2-1.6"/>
	<path class="st1" d="M420.5,194.3c1.7,1,2,2.6,2,4.3c0,14.1,0,28.2,0,42.3c0,0.9,0.2,1.7,0.8,2.4"/>
	<path class="st1" d="M281.9,328.1c0.7,0.6,0.9,1.4,0.9,2.4c0,2.7,0,5.3,0,8c0,2.1,0.4,2.5,2.5,2.5c11.2,0,22.3,0,33.5,0
		c0.5,0,1-0.2,1.4,0.1"/>
	<path class="st1" d="M105.2,232.1c-5.7-0.3-11.4-0.1-17.2-0.1c-1.4,0-1.9,0.4-1.9,1.8c0,9.3,0,18.5,0,27.8c0,0.1,0.1,0.2,0.1,0.3"
		/>
	<path class="st1" d="M131.3,262.1c-0.2,0.2-0.4,0.5-0.7,0.5c-2.2,0.6-2.9,2.1-2.8,4.3c0.1,3.3,0,6.6,0,9.9c0,1,0,2-1,2.7
		c-0.4,0.3-0.5,0.9-0.4,1.5c0.3,5.3,0.5,10.7,0,15.9c-0.5,4.8-0.1,9.6-0.4,14.4c0,0.8-0.1,1.7-0.1,2.5c0,2.8-0.1,5.6,0.1,8.4"/>
	<path class="st1" d="M223.3,238.7c0.5-0.5,0.9-1,1.4-1.5c0.6-0.7,1.4-0.8,2.2-0.9c0.9,0,0.9,0.7,1.3,1.1c1.1,1.3,1.3,2.9,1.8,4.3
		c2.6,8.6,5.1,17.3,7.6,25.9c1.4,4.7,2.8,9.4,4.2,14.1c0.2,0.8,0.7,1.4,1.1,2.2"/>
	<path class="st1" d="M499.6,317.5c0-1.9-0.8-2.8-2.8-2.8c-9.6,0-19.2,0-28.7,0c-2.3,0-4.2,0.9-5.2,3.1c-0.9,1.9-0.9,3.7,0.3,5.6
		c0.7,1.1,2.1,1.7,2.5,3.1"/>
	<path class="st1" d="M53.6,290c-0.4-0.3-0.9-0.1-1.4-0.1c-14.7,0-29.4,0-44.1,0c-0.6,0-1.1,0.1-1.7,0.1"/>
	<path class="st1" d="M401.3,334.3c-15,0-30,0-45.1,0c-5.3,0-10.7,0-16,0c-1.1,0-2.3-0.4-3.2,0.6"/>
	<path class="st1" d="M125.3,298.4c-0.3-0.3-0.8-0.5-1-0.8c-0.7-1.4-1.8-1.8-3.2-1.7c-1.5,0.1-3.1,0.1-4.6,0.2
		c-1.3,0.1-2.2,1.1-2.2,2.5c0,14.5,0,29,0,43.5c0,1.1-0.3,2.1-0.3,3.2c0,1,0.3,2,0.4,2.9"/>
	<path class="st1" d="M392.9,315.6c0.1-1,1-1.4,1.6-1.9c0.7-0.6,1.1-1.4,1.1-2.3c0-3.3,0.2-6.5-0.1-9.8c-0.2-1.6-0.8-2.1-2.4-2.4
		c-0.5-0.1-1-0.1-1.5-0.1c-7.5,0-15,0-22.5,0c-2.7,0-5.4-0.1-8.1,0c-2.9,0.2-5.9,0.1-8.8,0.1c-4.2-0.1-8.5,0.2-12.7-0.2
		c-2.3-0.2-4.5,0.2-6.7,0.1c-2.2-0.1-4.4,0-6.6,0c-1.7,0-2.1,0.3-2.1,2.1c0,3.9,0,7.8,0,11.7c0,1.8,0.4,2.1,2.1,2.1
		c3.1,0,6.2,0.2,9.3,0c3.7-0.2,7.2,0.6,10.9,0.6c1.4,0,2.9,0,4.3,0s2.9,0,4.3,0c3.9-0.1,7.8-0.2,11.7,0c4.4,0.2,8.8,0,13.3,0.2
		c3.8,0.2,7.7-0.2,11.6-0.2c1.8,0,3.6,0.7,5.4,0.8c1,0,2,1,2.3,2.1c0.1,0.5,0.4,0.8,0.7,1.1"/>
	<path class="st1" d="M223,242.2c-0.7,0.7-1,1.6-0.7,2.7c0.1,0.3,0,0.7,0,1.1c0,12.2,0,24.4,0,36.6c0,1.7-0.2,3.4-1.8,4.5
		c-0.3,0.2-0.4,0.7-0.6,1.1"/>
	<path class="st1" d="M258.4,305.2c0.1,0.3,0,0.5,0.1,0.8c1.1,2.4,1.1,4.9,0,7.4c-0.1,0.2-0.2,0.5-0.1,0.7c0.1,1.1-0.6,1.4-1.5,1.4
		c-1.6,0-3.3,0-4.9,0c-1.3,0-2.6-0.2-3.8,0.7c-0.5,0.4-1.2,0.3-1.8,0.3c-10.9,0-21.9,0-32.8,0c-1.6,0-3.3,0-4.9,0.1
		c-1.2,0-2.4-0.2-3.6-0.2c-4.2,0-6.1,2.6-4.9,6.7c0.3,1,0.8,1.8,1.3,2.6"/>
	<path class="st1" d="M222,229.6c0.6,1.6,0.2,3.4,0.2,5c0,1.5-0.5,3,0.7,4.2c0,0,0,0.1,0,0.1c-0.4,3.4,2.1,5.8,2.7,8.9
		c0.6,3.1,1.7,6.2,2.6,9.2c0.9,3.1,1.9,6.1,2.8,9.2c1.5,5.1,3,10.2,4.5,15.3c0.6,2.2,1.6,4.2,2.7,6.3"/>
	<path class="st1" d="M142.8,244.1c4.9,0.1,9.8,0.1,14.6,0.1c13.5-0.1,27.1,0,40.6-0.1c2,0,3.9,0.3,5.9,0"/>
	<path class="st1" d="M177.6,285.8c-0.1-1.1,0.1-2.1,0.8-3.1c0.9-1.3,1.9-2,3.5-2c3.3,0.1,6.7,0,10,0c1.6,0,2.4,0.7,2.4,2.4
		c-0.1,2.3,0.2,4.7,0.3,7c0.1,2,0,4.1,0,6.1c0,13.4,0,26.8,0,40.2c0,1.8,0.1,3.7-0.1,5.6c-0.1,1.3,0.2,2.7,0,4c-0.2,1.4-0.8,2-2.2,2
		c-3.5,0-7.1,0-10.6,0c-0.8,0-1.6,0-2.4,0.4"/>
	<path class="st1" d="M177.5,283.5c0,0-0.1-0.1-0.1-0.1c-0.8-2.4-2.6-2.7-4.7-2.5c-2.2,0.1-4.4,0.1-6.6,0c-1.3,0-2.3,0.7-2.1,2.1
		c0.4,2.8,0,5.6,0.2,8.4c0.1,1.5-0.1,3.3-0.1,4.9c-0.1,13.6,0,27.2,0,40.7c0,2.3,0,4.7,0,7c0,1.6,0,3.1,0.4,4.7"/>
	<path class="st1" d="M177.6,294.8c0.2,0.5,0.1,1,0.1,1.5c0,15.2,0,30.4,0,45.6"/>
	<path class="st1" d="M180.3,230c0.8-0.5,0.9-1.4,0.8-2.2c-0.1-10-0.1-20.1-0.1-30.1c0-2.5,0.2-5,0.1-7.5c-0.1-1.6,0.3-3.3-0.8-4.8
		c-0.2-0.2-0.4-0.7-0.2-1.2c0.8-2.2-0.4-4.1-2.8-4.1c-4.2-0.1-8.4-0.1-12.6,0c-1.8,0-2.5,0.8-2.3,2.6c0.1,1.4,0,2.7,0,4
		c-0.1,3.4,0,6.8,0,10.2c0,9.9,0,19.8,0,29.7c0,2.3,0.4,4.6,0.3,6.8c0,1.6-0.1,3.3-0.2,4.9c0,1.9,0.6,2.5,2.5,2.5
		c4.2,0,8.4,0,12.6,0c2.1,0,2.9-0.9,2.9-2.9c0.1-2.3-0.4-4.6-0.2-6.8c0.1-0.6,0-1.1-0.8-1.1c-5.5,0.1-11.1-0.2-16.6,0.1"/>
	<path class="st1" d="M319.9,322.4c0.7,0.7,0.7,1.5,0.7,2.4c0,4.7,0,9.5,0,14.2c0,1.2-0.3,2.4-0.2,3.6c0.1,1.3-1.1,2.5-2.9,2.3
		c-0.5,0-0.9-0.1-1.4-0.1c-8.9,0-17.8,0-26.6,0c-2.7,0-5.5,0.4-8.2,0.2c-4.2-0.4-8.5,0-12.7-0.2c-1.8-0.1-2.9-1.7-2.4-3.5
		c0.1-0.3,0.1-0.6,0.1-1c0.2-3.3-0.3-6.6,0.2-9.9c0.1-0.3-0.2-0.8-0.3-1.2c-0.3-1.5,0.1-3,0.1-4.5c-0.1-12.1-0.1-24.2,0-36.3
		c0-0.8,0-1.5-0.4-2.2"/>
	<path class="st1" d="M249.2,181.2c0.2-0.8,0.8-1.3,1.2-1.8c1.4-1.6,1.5-5.5-0.2-6.7c-0.8-0.6-1.7-0.8-2.7-0.8
		c-10.2,0-20.4-0.1-30.6,0c-1.9,0-3.8,0.3-5.7,0.1c-1.1-0.1-1.9,0.2-2.6,1.3c-0.9,1.5-1.2,2.9-1,4.5c0.2,1.8,1.3,2.8,3.1,2.8
		c0.8,0,1.6,0,2.4,0"/>
	<path class="st1" d="M322.2,263.4c0.7-3.6,0.4-7.2,0.2-10.9c-0.1-1.7,0.3-3.5,0.2-5.3c-0.3-5.1,0-10.2-0.1-15.3
		c-0.1-5.1,0.1-10.2-0.1-15.3c-0.1-2.6,0-5.2-0.1-7.8c-0.1-3.7-0.1-7.3,0-11c0-2.1-1.2-3.3-3.3-3.3c-3.8,0-7.6,0-11.4,0
		c-1.3,0-2.7,1.3-3.1,2.5c-1.3,3.4-0.8,7-0.8,10.5c0,2.5,0.2,5,0,7.4c-0.3,4.8-0.1,9.7-0.2,14.5c-0.1,4.8,0,9.7,0,14.5
		c0,3.4-0.1,6.8-0.1,10.2c0,3.1-0.1,6.2,0.1,9.3c0.1,2-0.6,3.5-1.7,4.9c-0.4,0.4-0.7,0.9-0.8,1.4"/>
	<path class="st1" d="M499.6,271.5c-0.8,0-1.7,0.1-2.5,0.1c-12.4,0-24.7,0-37.1,0c-3.1,0-6.1-0.2-9.2-0.3c-0.5,0-0.9,0.1-1.4,0.1
		c-1.2,0.1-1.6,0.7-1.5,1.7c0.1,2.4,0,4.8,0.2,7.3c0.1,1.4,0.1,3-0.6,4.5"/>
	<path class="st1" d="M100.6,292.8c0,17,0,33.9,0,50.9"/>
	<path class="st1" d="M92.1,291.8c0.6,3.3,0.4,6.6,0.4,9.9c0,13.9,0,27.8,0,41.7"/>
	<path class="st1" d="M430.9,332.2c1,1.9,2.6,2.2,4.6,2.1c7-0.1,14,0.1,21.1-0.1c2.7-0.1,5.3,0.2,8,0.1c2.6-0.1,5.3,0,8,0
		c2.6,0,5.2,0,7.8,0c2.7,0,5.3,0,8,0s5.3,0.1,8,0c1.2,0,2.2,0.2,3.1,1.1"/>
	<path class="st1" d="M40.4,321c0,3.5,0.1,7.1,0.1,10.6c0,1.6-1.3,2.9-2.9,2.9c-1.3,0-2.6,0-3.9,0c-11,0-21.9,0-32.9,0"/>
	<path class="st1" d="M489.2,249.7c-0.5,0.4-1,0.6-1.7,0.6c-6.4,0-12.8,0.1-19.3-0.1c-2.5-0.1-4.9,0.2-7.4,0.1c-2.5-0.1-4.9,0-7.4,0
		c-2.5,0-4.9,0-7.4,0s-4.9,0-7.4,0c-1.8,0-2,0.2-2,2c0,2.7,0,5.3,0,8c0,1.4-0.1,1.5-1.5,1.5c-1,0-2.3-0.5-2.9-0.3
		c-1.1,0.5-2.2,0.3-3.3,0.5c-1.1,0.2-2.2,0-3.3,0c-0.9,0-1.3-0.6-1.8-1.1"/>
	<path class="st1" d="M266.9,234.6c-11.7,0-23.4,0-35.2,0c-1.7,0-3.1,0.4-4.2,1.7"/>
	<path class="st1" d="M325.7,235.1c2.8,0.2,5.6,0.4,8.4,0.6c3.4,0.3,6.8,0.5,10.2,0.8c4.8,0.4,9.6,0.8,14.4,1.3
		c4.9,0.5,9.8,0.6,14.6,1.2c2.3,0.3,2.8,1.2,2.7,3.2c-0.1,0.7-0.1,1.4-0.1,2.1c-0.1,2.7-2.6,4.4-5,4.8c-2.9,0.4-5.7,0.1-8.5-0.2
		c-5.6-0.5-11.2-1.1-16.7-1.7c-3.8-0.4-7.5-0.9-11.3-1.1c-1.9-0.1-3.7-0.4-5.6-0.4c-1.4,0-2.8-0.5-3.4-2.2c-0.1-0.4-0.1-0.8-0.1-1.1
		c0-1.9-0.1-3.7,0-5.6c0.3-4.7-0.1-9.4,0.2-14.1c0.1-1.2-0.1-2.3-0.2-3.5c-0.2-2.2,0.2-4.4,0.3-6.6c0.1-1-0.4-1.7-0.4-2.7
		c0.1-5.1,0.2-10.1,0-15.2c-0.2-6.6-0.1-13.1-0.1-19.7c0-4.4,0-8.7,0-13.1c0-0.6,0-1.1,0.1-1.7c0.2-1.2,1.1-2.5,2.8-2.5
		c2.9,0,5.8-0.2,8.6,0.1c1.4,0.2,2.1,0.9,2.2,2.4c0.2,2.1,0.1,4.2,0.1,6.3c0,1.3,0.1,2.5,0.3,3.8c0.3,1.4,0.1,3,0.1,4.4
		c0,11.9,0,23.8,0,35.7c0,0.8-0.1,1.5-0.4,2.2"/>
	<path class="st1" d="M273.3,270.8c1,1.1,2.3,0.8,3.5,0.8c1.1,0,2.1,0.1,2.9,1c0.5,0.5,0.7,1.1,0.7,1.8c0,2.2,0,4.4,0,6.6
		c0,13.8,0,27.5,0,41.3c0,0.8,0.3,1.4,0.8,2"/>
	<path class="st1" d="M142.1,203.7c-1.3-2.5-3.4-3-6-2.8c-1.9,0.1-3.7-0.1-5.6,0.2c-2.3,0.4-3,1.3-3.2,3.5c-0.1,1.9-0.3,3.8,0.2,5.7
		c0.1,0.6-0.2,1.4-0.2,2.1c0,5,0,10,0,14.9c0,6.4,0.1,12.8,0.1,19.3c0,3.6,0,7.2,0,10.7c0,2.3,0.7,2.7,2.8,3.7
		c2.3,1.1,4.7,0.6,7,0.8"/>
	<path class="st1" d="M91.3,192.1c1.2,1.6,1.3,3.4,1.1,5.3c-0.1,1.6-1.2,2.8-2.5,3.3c-1.1,0.4-2.3,0.8-3.6,0.5c-0.4-0.1-0.7,0-1.1,0
		c-11.1,0-22.1,0-33.2,0c-2.9,0-5.8,0.2-8.6-0.1c-2.4-0.2-4.9,0.4-7.3-0.4c-1.4,1-3.5,0.2-4.7,2c-0.9,1.4-2.4,2.5-2.8,4.1
		c-0.8,3.1-0.6,6.1,1.7,8.6c0.5,0.6,1,1.2,1.2,2"/>
	<path class="st1" d="M106.1,231.9c0.5-0.5,0.7-1,0.9-1.7c0.3-1.2,1.5-2.1,2.8-2.1c4,0,8.1-0.1,12.1,0c1.6,0,2.8,0.7,2.8,2.8
		c0,2.2-0.1,4.4,0,6.6c0.3,7.4,0,14.8,0.2,22.2c0,1.1,0.1,2-1,2.7c-0.5,0.3-1,0.3-1.5,0.3c-4.2,0-8.5,0-12.7,0
		c-1.5,0-2.5-0.3-2.9-1.8c-0.1-0.3-0.4-0.5-0.5-0.7"/>
	<path class="st1" d="M281.9,324.2c0.8-1.3,1.8-1.8,3.5-1.8c10.9,0.2,21.8,0.1,32.6,0.1c0.6,0,1.2,0.1,1.8-0.2
		c0.9-2.9-0.6-4.3-3.7-3.7c-2.5,0.5-5,0.1-7.5,0.1c-0.4,0-0.9-0.1-1.4-0.1c-6.6,0-13.3,0-19.9,0c-0.4,0-0.8,0.1-1.1,0
		c-1.4-0.8-2.1,0.4-2.9,1c-0.8,0.7-0.2,1.6,0.2,2.3c0,0.1,0,0.2,0,0.3"/>
	<path class="st1" d="M499.6,323.1c-0.1,0.6,0.3,1.3-0.4,1.8c-1,0.7-1.6,1.8-3.2,1.9c-8.7,0.2-17.4,0-26.1,0.1
		c-0.7,0-1.4-0.1-2.1-0.1c-1.1,0-2.1-0.2-3.2,0.2c-1,0.4-2.2,0.1-3.2-1c-1.5-1.4-2.1-3.2-3.1-4.8"/>
	<path class="st1" d="M214.3,183c0.9,0.8,2,1,3.2,1c9.9,0,19.8,0,29.7,0c0.3,0,0.6,0.1,0.8,0c2.5-0.8,5.1-0.3,7.7-0.2
		c1.8,0.1,3.3-0.7,5-0.8c4.3-0.4,8.6-1,13-0.8c0,0,0.1,0,0.1,0c2.1-1,3.8,0.2,5.7,0.7c2.5,0.6,4.9,0.8,7.3-0.7
		c0.7-0.5,1.5-0.8,2.1-1.5c0.8-1,2.2-1.2,3.4-1.4c2.7-0.5,5.4-0.7,8.1-0.6c0.8,0,1.6-0.1,2.2-0.7"/>
	<path class="st1" d="M317.3,318.2c-0.3-1.8-1.7-2.8-2.7-4c-0.6-0.8-1.5-0.4-2.2-0.4c-7.7,0-15.3,0-23,0c-0.9,0-1.6,0.1-2.1,1
		c-0.8,1.1-1.8,2.1-2.1,3.5"/>
	<path class="st1" d="M142.3,203.7c0.2-0.2,0.4-0.3,0.5-0.6c0.6-1.5,1.7-2.3,3.4-2.2c3.1,0.1,6.2-0.2,9.3,0.1
		c1.3,0.1,2.1,1.1,2.1,2.4c0,0.9,0.2,1.8-0.3,2.7c-0.3,0.6,0.4,1.1,0.3,1.8c-0.2,1.1-0.1,2.1,0,3.2c0.1,10.7,0.2,21.4,0.1,32.1
		c0,4.4,0.2,8.8,0,13.3c0,0.7,0,1.4-0.2,2.1c-0.4,1.3-1.7,2.2-3.3,2.2c-2.6,0-5.2,0-7.8,0c-1.4,0-2.6-0.4-3.2-1.9
		c-0.2-0.5-0.4-1.1-1.1-1.1"/>
	<path class="st1" d="M142.1,210.4c0.3,1.1,0.3,2.3,0.3,3.5c0,9.2,0,18.3,0,27.5c0,2,0.1,4.1,0.1,6.1"/>
	<path class="st1" d="M498.2,284.7c-10.6-0.3-21.2-0.1-31.8-0.1c-1.5,0-3.1,0.4-4.6,0.4c-0.5,0-0.9,0-1.3-0.4"/>
	<path class="st1" d="M125.9,347.5c0.7,1.1,1.8,1.3,3.1,1.3c9.4,0,18.8,0,28.2-0.1c1.7,0,3.4,0.3,5.2,0.2c4.2-0.3,8.5-0.1,12.7-0.1
		c1.1,0,2.1-0.5,2.9-1.1"/>
	<path class="st1" d="M215.7,180.7c9.9,0,19.7,0,29.6,0c0.7,0,1.5,0.1,2.2,0.1c1.8,0.2,2.2,0.6,2.4,2.5"/>
	<path class="st1" d="M127.4,166c-0.8,0.5-1,1.3-1,2.2c0,8.6,0,17.2,0,25.8c0,0.8-0.1,1.7,0.8,2.1c0.9,0.3,1.4-0.4,1.9-1"/>
	<path class="st1" d="M243.5,324.6c0-0.3,0-0.7,0.1-1c0.5-1.5,0-2.2-1.5-2.2c-4.8,0-9.6,0-14.4,0c-4,0-7.9,0-11.9,0
		c-1.9,0-2.1,0.2-2.8,2c-0.1,0.2-0.2,0.5-0.3,0.7"/>
	<path class="st1" d="M498.2,298c-1.8-0.4-3.7-0.3-5.6-0.3c-7.4,0-14.9,0-22.3,0c-1.4,0-2.7,0.9-4.2,0.6c-0.4-0.1-0.9,0-1.1-0.2
		c-1.2-1.2-2.4-0.5-3.3,0.2c-1.2,0.9-2.2,2.1-2.7,3.6c-0.2,0.5-0.3,1.1-0.8,1.4"/>
	<path class="st1" d="M281.3,153.7c-0.3-0.3-0.7-0.6-0.8-1c-0.7-2.7-2.7-3.8-5.1-4.4c-3.8-1.1-7.6-1.2-11.6-0.6
		c-1.8,0.3-3.4,0.8-5.2,1.2c-1.1,0.3-1.9,0.9-1.7,2.2c0.3,1.6-0.4,3.1,0.1,4.8c0.4,1.5,0.1,3.2,0.1,4.9c0,1.6,0,3.2,0,4.7
		c0,1.6,0,3.2,0,4.7c0,2-0.1,4-0.1,6c0,2.1,0.2,2.3,2.2,1.9c0.4-0.1,0.7-0.2,1.1-0.3"/>
	<path class="st1" d="M257.6,256.1c0.9,0.8,1.9,1.1,3.1,0.9c0.5-0.1,0.8-0.3,1.1-0.7c0.5-0.6,1.1-1.1,1.7-1.7c1.1-1,1.5-2.3,1.4-3.8
		c-0.1-1.1-1.1-1.8-2.1-1.1c-0.6,0.4-1.3,0.9-1.7,1.5c-1.1,1.6-2.6,2.8-3.5,4.6c-0.4,0.7-1.3,0.7-1.9,0.5c-1.8-0.4-3.5,0.2-5.3,0.5
		c-1.5,0.2-3,0.5-4.5,0.7c-1.9,0.2-2,0.5-2,2c0,7.6,0,15.2,0,22.7c0,0.7,0.4,1.7-1,1.7c-0.1,0-0.3,0.3-0.3,0.4
		c-0.1,1.5-1.4,2.4-2,3.6"/>
	<path class="st1" d="M306.3,154.3c0.3,0,0.6-0.1,1-0.1c1.2-0.1,1.5,0.2,1.5,1.4c0,4.2,0,8.4,0,12.6c0,4.3,0,8.6,0,12.8
		c0,1.8-0.3,2.1-2.1,2c-4.3-0.3-8.6-0.6-13-0.8c-0.8,0-1.6,0-2.4,0.1c-0.9,0.1-2,0.2-2.8-0.5"/>
	<path class="st1" d="M31.4,237.3c-0.6,0.2-1.2,0.3-1.8,0.3c-6.5,0-12.9,0-19.4,0c-3.2,0-5,3.2-3.5,6c0.2,0.4,0.4,0.7,0.4,1.1"/>
	<path class="st1" d="M256.5,154.1c-0.2,0-0.5,0-0.7,0c-1.4-0.1-1.7,0.2-1.7,1.5c0,4.7,0,9.4,0,14.1c0,4.6,0,9.1,0,13.7"/>
	<path class="st1" d="M66.5,279.4c-0.4,0.5-0.3,1.1-0.3,1.7c0,4.1-0.1,8.2,0,12.3c0.1,5,0.1,10,0.1,15.1c0,5,0,10,0,14.9
		c0,2.9,0,5.9,0,8.8c0,4.2,0,8.5,0,12.7c0,1.2-0.1,2.3,1.1,3.1c0.2,0.1,0.3,0.5,0.4,0.8"/>
	<path class="st1" d="M82.6,239.8c-1.5-2.1-3.5-2.3-5.9-2.3c-7.1,0.1-14.2,0-21.3,0c-0.6,0-1.1-0.1-1.7-0.1"/>
	<path class="st1" d="M461.5,326.7c-1.3,0.4-2.6,1-4.1,0.7c-2.4-0.4-4.9-0.2-7.4-0.2c-5.3,0-10.7,0-16,0c-2.2,0-4.3,2.3-4,4.2"/>
	<path class="st1" d="M458.2,318.4c0.2-0.3,0.6-0.6,0.7-1c0.3-2.3,2-3.6,3.7-4.8c0.7-0.5,1.7-0.8,2.6-0.7
		c10.6,0.8,21.2,0.2,31.8,0.4c0.1,0,0.2,0.1,0.3,0.1"/>
	<path class="st1" d="M456.5,284.9c-2.7,0-5.3,0-8,0c-1.7,0-1.9,0.2-1.8,2c0.1,3.2,0,6.3,0,9.5c0,0.2,0.1,0.5,0,0.5
		c-1.4,1.2-0.9,2.7-1,4.2c0,3.3,0,6.7,0,10c0,0.6,0,1.2,0.3,1.7c1.1,1.9,1,3.8,0.1,5.7c-0.4,1-0.4,1.9-0.4,2.9
		c0,1.1-0.8,1.9-1.7,1.9c-3.6,0-7.3,0.2-10.9-0.1c-1.5-0.1-2.1-0.9-2.1-2.4c0-5,0-10,0-15.1c0-3.7-0.2-7.3-0.1-11
		c0-1.7,0.3-3.5,0.3-5.2c-0.1-3.2-0.2-6.4-0.2-9.6c0-4,0-8,0-12"/>
	<path class="st1" d="M354.4,334.7c0,3.1-0.1,6.2,0,9.3c0,1.7-0.8,1.9-1.8,1.9c-4.6,0-9.1,0-13.7,0c-0.8,0-1.3-0.6-2-0.9"/>
	<path class="st1" d="M221.7,229.3c-0.4-0.9-0.6-1.7-0.5-2.8c0.3-4.1-1.8-6.5-6.1-7.6c-1.8-0.5-3.7-0.6-5.7-0.3
		c-4.4,0.7-5.6,5-5.1,8.4c0.2,1.3,0.5,2.7-0.1,4c-0.1,0.3,0,0.7,0,1.1c0,3.1,0,6.1,0,9.2c0,8.8,0,17.6,0,26.4c0,5.1,0.1,10.1,0,15.2
		c0,1.9,0.8,3.2,2.1,4.3c0.3,0.2,0.6,0.5,0.8,0.7"/>
	<path class="st1" d="M45.8,235.3c-1.2-0.5-1.6-1.8-2.5-2.7c-0.6-0.6-1.2-1.3-1.8-1.9c-0.6-0.6-1.2-0.4-1.7,0.3
		c-0.4,0.6-0.6,1.4-0.7,2.1c-0.1,0.8,0.3,1.7-0.6,2.4c-0.1,0.1,0,0.3,0,0.4c0.5,3.1,1,6.2,1.5,9.3c0.5,3.1,1.1,6.2,1.6,9.3
		c0.2,1.5,0.2,3.1,0.6,4.6c0.3,1.1,0.2,2.4-0.6,3.5"/>
	<path class="st1" d="M38.4,235.6c-1.4-0.4-2.2-1.6-3.3-2.4c-0.7-0.5-1.3-1.1-1.9-1.7c-0.4-0.4-0.9-0.4-1.3-0.2
		c-0.4,0.2-0.6,0.7-0.6,1.2c0.1,2.1,0.2,4.2,1.1,6.3c1.4,3.5,2.4,7.2,3.7,10.7c1.4,3.9,2.7,7.7,4.2,11.6c0.4,1,1,1.9,2.2,2"/>
	<path class="st1" d="M343,315.7c0,0.6-0.6,0.9-1,1.1c-2.2,1-2.9,3-3.1,5.1c-0.2,1.6-0.3,3.3,0.1,4.9c0.8,3.6,3.9,5.5,7.4,4.5
		c1-0.3,1.7,0.1,2.5,0.1c9.8-0.1,19.5,0,29.3-0.1c2,0,3.9,0.1,5.9,0.1c3.3-0.1,6.5-0.1,9.8,0c2.5,0.1,4.4-0.7,5.6-2.9
		c0.1-0.3,0.4-0.5,0.6-0.7"/>
	<path class="st1" d="M47.2,261.3c1.4-1.4,1.3-3.2,1.6-4.9c1.2-5.3,2.4-10.5,3.7-15.8c0.2-1,0.3-2,0.9-3c0.6-0.8-0.2-5.7-0.8-6.4
		c-0.7-0.8-1.4-0.9-2.2-0.1c-1.4,1.4-2.9,2.7-4.3,4.1c-0.5,0.5-0.6,1.2-0.6,1.8c0,6.5-0.1,12.9,0.1,19.4c0,1.7-0.1,3.6,1.1,5.2
		c0.5,0.6,0.1,1.7,0.2,2.6c0.1,2.6,1,3.5,3.5,3.6c2.5,0.1,4.9-0.4,7.3-1c0.8-0.2,1.5-0.5,2.2-0.7c0.7-0.2,1.2-0.5,1.4-1.1
		c0.3-0.8,0.8-1.1,1.6-1.4c3.9-1.6,7.7-3.5,11.3-5.8c0.7-0.5,1.6-0.9,2.5-0.6"/>
	<path class="st1" d="M261.6,256.8c0.8,0.7,1.7,0.5,2.7,0.6c1.3,0,1.7,0.4,1.7,1.7c0,3.9-0.3,7.7,0,11.6c0.3,4.9-0.1,9.8,0.3,14.7
		c0,0.5-0.1,0.7-0.5,1c-2.6,1.5-5.4,2.5-8.5,2.1c-2.4-0.3-4.9,0.1-7.2-0.2c-2.3-0.2-4.5,0.7-6.8,0.5c-1.5-0.1-2.9-0.9-4.5-0.6
		c-5.4,1.2-10.9,0.4-16.3,0.5c-1.9,0-3.9-0.4-5.9-0.4c-0.3,0-0.6-0.1-0.8,0c-1.9,0.6-3.8,0.2-5.7,0.3c-1.1,0-2.1,0.2-3.2,0.6
		c-1.8,0.6-3.9,0.5-5.8,0c-1.1-0.2-1.5-1.4-1.5-2.5c0-5.5-0.2-11.1,0.1-16.6"/>
	<path class="st1" d="M126.2,322.5c0.8,0.7,1,1.5,1,2.5c0,6.2,0,12.4,0,18.6c0,1.2-0.4,2.1-1.4,2.6c-0.6,0.3-0.8,0.7-1.1,1.1
		c-0.6,1-1.5,1.4-2.6,1.4c-1.8,0-3.5,0.1-5.3,0c-3.5-0.3-7,0.2-10.5,0c-2.3-0.1-4.2-0.4-5.2-2.7"/>
	<path class="st1" d="M336.8,334.8c-2.1-1.6-6.6-0.5-8.1,1.3c-1.9,2.2-2,5.5-0.5,7.8c1.5,2.3,6.4,2.9,8,1.5c0.3-0.2,0.7-0.3,0.7-0.7
		c0-3.3,0.5-6.5-0.1-9.8"/>
	<path class="st1" d="M446.8,285.3c-0.8-0.9-1-1.9-1-3.1c0-1.8-0.2-3.7-0.1-5.4c0.1-2.6,0-5.2,0.1-7.8c0.1-1.4-0.1-1.5-1.5-1.5
		c-3.8,0-7.6-0.1-11.4,0c-3,0.1-6,0.3-9.1,0.3c-0.8,0-1.5-0.1-2.1-0.7"/>
	<path class="st1" d="M114.3,297.3c-1-0.6-1.5-1.4-1.6-2.5c-0.2-1.9-2.2-3.5-4.2-3.2c-1.3,0.2-2.5,0.1-3.8,0.1c-1.2,0-2.4,0-3.5,0.7
		c-0.6,0.4-1.1,0.3-1.5-0.2c-0.8-0.8-1.7-0.8-2.7-0.8c-3.6,0-7.2,0.1-10.7,0c-1.8,0-3.3,0.8-4.7,1.6c-0.8,0.5-0.8,1.7-0.8,2.3
		c0.3,2.8,0.2,5.5,0.2,8.2c0,6.5,0,12.9,0,19.4c0,6.1,0,12.3,0,18.4c0,1.9,0.1,3.8,0.3,5.7"/>
	<path class="st1" d="M202.3,209.3c-1.3,0.2-1.3,1.1-1.3,2c0,5.5,0,11,0,16.5c0,1.4-0.3,3-0.3,4.3c0.1,2,0,4.1,0.1,6.1
		c0.1,2.1-0.8,2.9-2.9,2.9c-3.8,0-7.6,0-11.4,0c-1.8,0-2.8-1.1-3-2.9c-0.1-1.4,0.3-2.9,0.1-4.3c-0.2-1.2,0.6-1.8,2-1.8
		c2.2,0,4.4,0,6.6,0c2.7,0,5.5,0,8.2,0"/>
	<path class="st1" d="M275.9,268.5c1.1,1.1,2.5,1.1,3.9,1.1c5.6,0,11.3-0.1,16.9,0c2.3,0,4.6,0.3,6.8,0.4c1.6,0,3.2-0.3,4.7-0.3"/>
	<path class="st1" d="M466.6,249.7c0-6.2,0-12.4,0-18.4c7.9,0,15.6,0,23.3,0"/>
	<path class="st1" d="M40.6,332.7c1.4,1.8,3.3,1.9,5.3,1.8c4.3-0.1,8.6,0,12.8,0c0.9,0,1.9,0.1,2.8-0.3c0.2-0.1,0.5,0.1,0.7-0.1
		c1.1,0.9,2.4,0.3,3.6,0.4"/>
	<path class="st1" d="M467.3,209.3c-0.1,7.2,0.2,14.4-0.3,21.6"/>
	<path class="st1" d="M125.9,322.5c-1.5,1.3-1,3.2-1.1,4.7c-0.1,4.7,0,9.4,0.1,14.1c0,0.6,0,1.1-0.3,1.7c-0.5,1.1-0.4,2.3,0.3,3.3"
		/>
	<path class="st1" d="M278.5,182.2c0.3-2-1-3-2.5-3.8c-4.5-2.3-9.2-2.5-14.1-1.7c-0.5,0.1-0.8,0.5-1.1,0.8"/>
	<path class="st1" d="M200.5,185.4c-5.4,0-10.9,0-16.3,0c-1.2,0-2.2,0.3-3.1,1.1"/>
	<path class="st1" d="M181.4,189.7c6.4,0.3,12.8,0.1,19.3,0.1"/>
	<path class="st1" d="M322.2,252.2c-6.1,0-12.3,0-18.4,0"/>
	<path class="st1" d="M322,245.4c-0.6,0.3-1.2,0.1-1.8,0.1c-5.5,0-11,0-16.5,0"/>
	<path class="st1" d="M124.4,244.3c-6.1,0-12.2,0-18.3,0"/>
	<path class="st1" d="M124.4,234.2c-6.1,0.1-12.2-0.1-18.3,0.1"/>
	<path class="st1" d="M124.4,237.4c-6.1,0-12.2,0.1-18.3,0.1"/>
	<path class="st1" d="M124.4,241.1c-0.9-0.3-1.9,0-2.8,0c-5.2,0-10.3,0-15.5,0"/>
	<path class="st1" d="M303.9,215c6,0,12.1,0,18.1,0"/>
	<path class="st1" d="M322,208.7c-6,0-12.1,0-18.1,0"/>
	<path class="st1" d="M408,347c-0.4-1.2-0.2-2.4-0.2-3.6c0-2.2,0-4.4,0-6.6c0-1.6-1.1-2.6-2.6-2.6c-1.2,0-2.4,0.1-3.6,0.1"/>
	<path class="st1" d="M180,233.4c-1.1,0.3-2.1,0.1-3.2,0.1c-4.6,0-9.2,0-13.8,0"/>
	<path class="st1" d="M179.9,184.4c-0.5,0-1,0.1-1.5,0.1c-5.1,0-10.2,0-15.3,0"/>
	<path class="st1" d="M200.5,235.3c-5,0-10,0-14.9,0c-0.5,0-1-0.1-1.5-0.1"/>
	<path class="st1" d="M194.2,338.7c-10,0-19.9,0-29.9,0"/>
	<path class="st1" d="M194.2,291.3c-10,0-19.9,0-29.9,0"/>
	<path class="st1" d="M164.4,342.1c10,0,19.9-0.2,29.9,0"/>
	<path class="st1" d="M194.2,294.4c-0.6,0-1.1,0.1-1.7,0.1c-5.2,0.1-10.3,0.1-15.5,0.1c-4.2,0-8.5,0-12.7-0.1"/>
	<path class="st1" d="M194,285.8c-0.6,0.3-1.3,0.1-2,0.1c-5-0.1-10,0-14.9-0.1c-4.2,0-8.5,0-12.7,0.1"/>
	<path class="st1" d="M447,297.1c0.7,0.6,0.9,1.4,0.9,2.4c0,3.8,0,7.6,0,11.4c0,0.9-0.2,1.7-0.9,2.4"/>
	<path class="st1" d="M220.9,227.7c-0.5,0-0.9-0.1-1.4-0.1c-4.5,0-8.9,0-13.4,0c-0.5,0-0.9,0.1-1.4,0.1"/>
	<path class="st1" d="M87.2,201.6c0.1,0.8,0.9,1.2,1.3,1.8c0.7,1.1,1,2.2,1,3.5c0,1.7,0,3.3,0,5c0,1.6-0.3,3.1-1.5,4.2
		c-0.5,0.4-0.6,1-0.8,1.5"/>
	<path class="st1" d="M74.1,267.3c0-0.9,1.1-1.3,1.1-2.3c-0.8-1.2-2.1-1-3.2-0.9c-2.3,0.3-4.7,0.5-7,1c-1.1,0.3-2.3-0.1-3.5-0.2"/>
	<path class="st1" d="M41.8,263.2c-0.1,0.8,0.2,1.6-0.1,2.5c-0.3,1.2-1,1.7-2.1,1.9c-2.1,0.4-4,0-6-0.6c-1.4-0.4-2.9-1.1-4.3-1.3
		c-3.1-0.4-6.2-1.3-9.3-1.5c-1.2-0.1-2.3-0.2-3.5-0.3c-0.8-0.1-1.6,0-2.1,0.7c-0.5,0.7,0.1,1.2,0.4,1.8c0.1,0.2,0.2,0.5,0.3,0.7"/>
	<path class="st1" d="M352.2,299.5c0,5.3,0,10.5,0,15.8"/>
	<path class="st1" d="M367.1,299.5c0,4.1,0,8.3,0,12.4c0,1.1-0.1,2.2-0.1,3.3"/>
	<path class="st1" d="M359.6,299.5c0,5.3,0,10.5,0,15.8"/>
	<path class="st1" d="M405.9,251.9c5.8-0.3,11.5-0.1,17.3-0.1"/>
	<path class="st1" d="M47.3,201.6c0.3,3.9,0.1,7.9,0.1,11.9c0,1.1,0,2.2,1,2.9c0.4,0.3,0.3,0.7,0.3,1.1"/>
	<path class="st1" d="M15.8,247.8c1.8,1.5,2.9,3.6,4.3,5.4c1.9,2.4,3.6,4.9,5.9,6.9c1.8,1.5,2.4,3.4,2.9,5.5"/>
	<path class="st1" d="M423.2,258.6c-5.1,0-10.2,0-15.3,0"/>
	<path class="st1" d="M199.5,269.9c-0.3-1.9-0.1-3.8-0.1-5.7c0-1,0-2-0.8-2.8c-0.9-0.8-1.8-1-2.9-0.4c-2.2,1.1-4.1,2.5-5.3,4.7
		c-0.4,0.8-0.6,1.7-0.7,2.5c-0.1,1.2,0.8,1.9,2.1,1.9c2.5,0,5,0,7.5,0"/>
	<path class="st1" d="M405.6,258.5c0.7,0,1.4,0,2.1,0c-0.6,2.1-0.2,4.3-0.2,6.4c0,1.1,1.1,1.8,2.6,2c2.6,0.3,5.2,0.1,7.8,0.1
		c0.6,0,1.2,0,1.8,0c1.9,0,2.9-1,2.9-2.9c0-1.3,0-2.4,0.7-3.7c0.5-0.8,0.1-2.2,0.1-3.3c0-4.5,0-9,0-13.5"/>
	<path class="st1" d="M49.9,201.6c0.3,4.3,0.1,8.6,0.1,12.8c0,1-0.7,1.5-1.1,2.2"/>
	<path class="st1" d="M346.9,315.8c0,4.5,0,9,0,13.5c0,0.5,0.1,1,0.1,1.5"/>
	<path class="st1" d="M353.8,315.8c0,5,0,10,0,15.1"/>
	<path class="st1" d="M446.5,289.6c-5,0-10,0-14.9,0"/>
	<path class="st1" d="M446.5,286c-5,0-10,0-14.9,0"/>
	<path class="st1" d="M380.1,316c0,4.5,0,8.9,0,13.4c0,0.5-0.1,1-0.1,1.5"/>
	<path class="st1" d="M386.5,316c0,4.1,0,8.3,0,12.4c0,0.8-0.1,1.7-0.1,2.5"/>
	<path class="st1" d="M430.4,331.7c-1,0.3-1.4,1-1.2,1.9c0.5,3.7,0.2,7.4,0.2,11c0,1.4-1.1,2.4-1.8,3.5"/>
	<path class="st1" d="M157.3,209.5c-0.5,0-1,0.1-1.5,0.1c-4.4,0-8.8,0-13.3,0"/>
	<path class="st1" d="M260.6,177.6c0.2,1,1,1.1,1.7,1.1c2.1,0.1,4.2,0,6.3,0.3c1.8,0.2,3.5,0.6,5.2,1.1c0.7,0.2,1.2,0.8,1.5,1.4"/>
	<path class="st1" d="M157.4,247.2c-0.7,0-1.4,0.1-2.1,0.1c-4,0.1-8.2-0.3-12.1,0.2c-5.1,0.7-10.2,0.2-15.4,0.5"/>
	<path class="st1" d="M446.2,318.1c-4.9,0-9.8,0-14.6,0"/>
	<path class="st1" d="M340.2,220.1c-1.6,0.9-3.3,1.1-5.2,1c-3.1-0.1-6.2-0.2-9.3,0.1"/>
	<path class="st1" d="M281.3,326.7c-4.8,0-9.7,0-14.5,0"/>
	<path class="st1" d="M142.6,206.2c4.4,0,8.7,0,13.1,0c0.5,0,1-0.2,1.4,0.1"/>
	<path class="st1" d="M121.6,219.6c-2.6,0.3-5.1,0.2-7.7,0.1c-3.1-0.1-6.1-0.1-9.2-0.1c-2.5,0-4.9-0.2-7.4,0.1"/>
	<path class="st1" d="M13.9,256.2c2,1.5,4.2,2.6,6.4,3.8c1.7,0.9,3.4,1.9,5.1,2.7c0.9,0.4,1.7,0.7,2.7,0.9"/>
	<path class="st1" d="M141.9,251.5c-4.7-0.3-9.4-0.1-14.1-0.1"/>
	<path class="st1" d="M142.2,204c0,1.8,0,3.5,0,5.3c0,0.6,0,1-0.7,1c-0.5,0-1,0.1-1.5,0.1c-4.1,0-8.2,0-12.3,0"/>
	<path class="st1" d="M209.2,172.3c-1.9-1.2-3.8,0.6-4.3,2.8c-0.2,0.9-0.2,1.9-0.2,2.9c0,1.8,0.8,3.2,2.4,4.2c0.4,0.3,0.9,0.5,1.1,1
		"/>
	<path class="st1" d="M281.3,328.1c-0.8,0.9-1.2,1.9-0.9,3.2c0.2,0.9,0,1.9,0,2.9c0,1.7-0.1,3.4,0.1,5c0.3,2-0.3,3.7-1.4,5.3"/>
	<path class="st1" d="M66.7,324.9c4.7,0,9.3,0,14,0"/>
	<path class="st1" d="M66.7,295.3c4.7,0,9.3,0,14,0"/>
	<path class="st1" d="M214.9,304.4c-0.9-1.6-1-1.9-3.1-1.7c-1.7,0.2-3.4-0.2-5.2-0.2c-2.6-0.1-5.1-0.1-7.7-0.1"/>
	<path class="st1" d="M445.4,276.8c-4.6,0-9.2,0-13.8,0"/>
	<path class="st1" d="M325.4,170.6c4.6,0,9.2,0.1,13.8,0.1"/>
	<path class="st1" d="M72.5,250.1c-3.1,3.9-6,8-9.8,11.3c-0.8,0.7-0.9,1.6-0.8,2.5"/>
	<path class="st1" d="M428.9,333.1c-4.6,0-9.1,0-13.7,0"/>
	<path class="st1" d="M325.4,173.4c4.6,0,9.1,0,13.7,0"/>
	<path class="st1" d="M280,282.4c-3.4,0-6.8-0.1-10.2-0.1c-1.2,0-2.3,0.1-3.5,0.1"/>
	<path class="st1" d="M280,285.7c-3.6,0-7.2,0-10.7,0c-1,0-2-0.1-2.9-0.1"/>
	<path class="st1" d="M80.7,279.4c0.4,0.5,0.3,1.1,0.3,1.7c0,3.3,0,6.5,0,9.8c0,0.8,0.1,1.5,0.6,2.1"/>
	<path class="st1" d="M468,298.4c0.2,0.4,0.3,0.8,0.7,1.1c1.5,1.1,2,2.8,1.9,4.6c0,2.4-0.1,4.8-2.1,6.6c-0.2,0.2-0.3,0.6-0.4,1"/>
	<path class="st1" d="M400.2,327.3c1.3,0.2,1.3,1.1,1.3,2c0,5.8,0,11.5,0,17.3c0,0.4,0,0.8,0,1.3"/>
	<path class="st1" d="M461.3,285.3c-2.5,2.2-2.5,5.1-2.1,8.1c0.2,1.5,0.9,2.6,2.4,3.2c0.5,0.2,0.9,0.4,1.1,1"/>
	<path class="st1" d="M465,298.3c-0.1,0.8-0.6,1.3-1.1,1.8c-2.3,2.8-2.3,7.3,0,10.2c0.3,0.4,0.6,0.9,0.8,1.4"/>
	<path class="st1" d="M213.2,288.9c0,0.8-0.1,1.5-0.6,2.2c-2.2,3.1-2,6.3-0.3,9.5c0.3,0.5,0.7,1,0.6,1.7"/>
	<path class="st1" d="M124.2,343.7c-0.6-0.5-1.3-0.6-2.1-0.6c-1.8,0-3.5,0.1-5.3,0c-1,0-1.9,0.7-2.8,0.6c-0.9-0.1-1.7-0.7-2.7-0.6
		c-1.5,0.1-3.1,0-4.6,0c-2,0-4.1-0.2-6,0.7"/>
	<path class="st1" d="M266.8,330.5c4.4,0,8.8,0,13.3,0"/>
	<path class="st1" d="M325.7,212.2c1.7-0.4,3.4,0.1,5.2,0c1.6-0.1,3.2,0,4.7,0c1.2-0.1,2.3,0.3,3.4,0.9c-0.9,0.9-1.9,1.3-3.2,1.2
		c-2.8-0.1-5.6,0-8.4,0c-0.6,0-1.2-0.1-1.8-0.1"/>
	<path class="st1" d="M31.7,201.9c-1.9-1-3.5-0.1-4.8,0.9c-4.7,3.3-4.8,9.5-1.3,12.9c0.4,0.4,0.7,0.9,1,1.4"/>
	<path class="st1" d="M255.1,328.5c0,4.2,0,8.4,0,12.6"/>
	<path class="st1" d="M251.6,328.5c0,3.3,0,6.7,0,10c0,0.8-0.1,1.7-0.1,2.5"/>
	<path class="st1" d="M464.8,285.3c0,0.6,0.5,0.9,0.8,1.3c1.7,1.8,1.7,3.9,1.4,6.1c-0.2,1.4-0.7,2.6-1.8,3.5
		c-0.3,0.3-0.4,0.9-0.6,1.4"/>
	<path class="st1" d="M257.7,183.9c0.5,1.5,1.7,2.8,1.7,4.5c0,1.5,0,3.1-1.2,4.3c-0.5,0.5-1,0.9-1.8,0.8c-0.6-0.1-1.1,0.3-1.5,0.7"
		/>
	<path class="st1" d="M112.8,295.9c-2.6,0-5.1,0.1-7.7,0.1c-1.4,0-2.7,0.1-4,0.6"/>
	<path class="st1" d="M59.1,292.8c-1.5,0.4-1.7,1.8-2,2.9c-0.9,2.7-1,5.4,0.2,8.1c0.1,0.3,0.2,0.6,0.3,1"/>
	<path class="st1" d="M405.9,193.6c0.9-0.2,1.7-0.3,2.5,0.3c0.3,0.2,0.8,0.2,1.2,0.2c3.5,0,7.1,0,10.6,0"/>
	<path class="st1" d="M366.3,215c2.1,0,4.2,0,6.3,0c0.8,0,1.6,0.2,2.2-0.4c0.2-0.2,0.5-0.2,0.7,0c0.7,0.6,1.6,0.4,2.4,0.4
		c2.8-0.1,5.7,0.2,8.5-0.1"/>
	<path class="st1" d="M100.2,301.6c-6.2,0-12.5,0-18.7,0"/>
	<path class="st1" d="M104.4,275.4c-3.6,0-7.3,0-10.9,0"/>
	<path class="st1" d="M92.4,343.9c-0.1,1.1,0.2,2.2-0.6,3.3c-0.7,0.9-1.4,1.3-2.4,1.3c-1.8,0.1-3.5,0-5.3,0c-0.8,0-1.6-0.2-2.1-1"/>
	<path class="st1" d="M385.7,211.2c-0.7-1.7-2.1-1.9-3.8-1.8c-2.1,0.1-4.2,0.1-6.3-0.1"/>
	<path class="st1" d="M258.4,315c1.8,0.3,2.2,0.2,2.9-1.5c0.5-1.1,1-2.1,1.3-3.3c0.5-2.2,0.2-3.9-1.7-5.2"/>
	<path class="st1" d="M275.9,263.9c0,0.2,0,0.5,0,0.7c0,4.3-0.1,4.6-3.9,6.6c-0.1,0.1-0.3,0.1-0.4,0.1c-2,0.1-3.7,0.9-5.2,2.1"/>
	<path class="st1" d="M251.9,245.5c0.1,1.4,0.8,2.6,1.3,3.9c0.8,2.1,1.5,4.3,1.5,6.6"/>
	<path class="st1" d="M367.9,249.6c0.1,3.2-0.2,6.3,0.1,9.5"/>
	<path class="st1" d="M252.3,256.4c0.2-2.4-1.4-3.7-2.9-5.2c-1.3-1.3-2.9-1.3-4.5-1.2c-1.3,0.1-1.9,2.2-1,3.4c0.6,0.8,1.3,1.6,2.3,2
		c0.7,0.3,1.3,0.8,1.5,1.5"/>
	<path class="st1" d="M10.7,308.7c0,0.2,0,0.5,0.2,0.7c1.8,2.3,1.8,4.7,0.7,7.3c-0.1,0.3-0.2,0.7-0.3,1.1"/>
	<path class="st1" d="M396.7,287.5c0.3,3,0.1,6,0.1,8.9"/>
	<path class="st1" d="M100.8,346c-0.1,0.1-0.2,0.2-0.3,0.3c-0.9,2.3-2.9,2.3-4.9,2.2c-1.5-0.1-2.1-1.2-2.9-2.2"/>
	<path class="st1" d="M259.4,246.9c-0.5,0-1,0-1.1,0.6c-0.3,1.7-0.7,3.4-1,5.2c-0.1,0.7,0.4,1.3,0.7,2"/>
	<path class="st1" d="M263,203.4c0.2,2.7,0.4,5.5-0.1,8.2"/>
	<path class="st1" d="M215.4,172.4c0.3,2.6,0.1,5.3,0.1,8c0,0.6-0.6,0.9-1,1.3"/>
	<path class="st1" d="M448.4,280.5c2.7,0.1,5.4-0.2,8.1,0.1"/>
	<path class="st1" d="M213.1,172.4c0,2.4,0,4.7,0,7.1c0,0.9,0.2,1.6,1,2.1"/>
	<path class="st1" d="M346.6,170.8c-0.7-0.4-0.7-1.4-1.2-2c-1.3-1.3-2.7-1.4-3.9,0c-0.5,0.6-0.9,1.2-1.5,1.5"/>
	<path class="st1" d="M444.1,253.8c0,2.6-0.1,5.1-0.1,7.7"/>
	<path class="st1" d="M208.5,317c-0.8,1.5-1.4,2.9-1.2,4.8c0.2,1.1,1.1,1.8,1.2,2.9"/>
	<path class="st1" d="M209.2,203.5c-0.1,2.5-0.2,5-0.3,7.5"/>
	<path class="st1" d="M211.4,317c-0.1,1.4-0.2,2.8-0.3,4.2c-0.1,1.2,0.2,2.1,0.8,3.1"/>
	<path class="st1" d="M35.9,218.5c0,2.3,0,4.7,0,7"/>
	<path class="st1" d="M245.7,250.4c0.2,1.6,1.6,2.3,2.7,3.2c1,0.8,2,1.6,2.2,2.9"/>
	<path class="st1" d="M458.2,306.1c0.3,0.2,0.5,0.5,0.6,0.8c0.4,2.4,2,4,3.8,5.4"/>
	<path class="st1" d="M407.4,252.1c0.1,2.1-0.2,4.2,0.1,6.3"/>
	<path class="st1" d="M142.2,248c0.2,1.1,0.1,2.1,0,3.2c-0.1,1.1,0.2,2.2,0.1,3.3c-0.1,1.5,0.2,3-0.9,4.4c-0.7,0.9-1.2,1.8-2.5,1.8
		c-0.5,0-1,0.4-1.4,0.8"/>
	<path class="st1" d="M458.9,327.8c0,2,0,3.9,0,5.9"/>
	<path class="st1" d="M177.8,286.1c0,2.8,0,5.6,0,8.4"/>
	<path class="st1" d="M247,287.8c-0.9-1.3-2.3-2.1-3.1-3.5"/>
</g>
</svg>
